<?xml version="1.0" encoding="UTF-8"?>
<svg xmlns="http://www.w3.org/2000/svg" xmlns:xlink="http://www.w3.org/1999/xlink" width="199px" height="124px" viewBox="0 0 75 47" version="1.1">
<g id="surface1">
<path style=" stroke:none;fill-rule:nonzero;fill:rgb(0%,0%,0%);fill-opacity:1;" d="M 33.113281 21.625 C 25.804688 32.160156 19.808594 40.820312 19.859375 40.820312 C 19.859375 40.871094 22.730469 40.367188 26.160156 39.707031 C 29.535156 39.046875 34.675781 38.1875 37.5 37.832031 L 42.589844 37.175781 L 42.945312 32.921875 C 43.296875 28.414062 42.691406 20.664062 41.785156 17.828125 C 41.027344 15.546875 41.582031 15.195312 42.742188 17.167969 L 43.699219 18.789062 L 44.253906 13.777344 C 44.605469 11.039062 45.261719 7.34375 45.816406 5.671875 C 46.320312 3.949219 46.671875 2.53125 46.621094 2.53125 C 46.523438 2.53125 40.472656 11.140625 33.113281 21.625 Z M 33.113281 21.625 "/>
<path style=" stroke:none;fill-rule:nonzero;fill:rgb(0%,0%,0%);fill-opacity:1;" d="M 38.558594 38.847656 C 32.660156 39.757812 16.984375 42.542969 16.734375 42.746094 C 16.128906 43.351562 16.984375 43.402344 19.40625 43 C 20.816406 42.746094 27.269531 42.390625 33.820312 42.1875 C 45.867188 41.882812 51.816406 42.339844 56.097656 43.808594 C 57.964844 44.46875 58.015625 44.417969 57.863281 43.402344 C 57.660156 41.785156 54.6875 40.972656 47.730469 40.667969 C 42.238281 40.367188 41.785156 40.265625 41.984375 39.402344 C 42.238281 38.441406 41.886719 38.390625 38.558594 38.847656 Z M 38.558594 38.847656 "/>
</g>
</svg>
