<?xml version="1.0" standalone="no"?>
<!DOCTYPE svg PUBLIC "-//W3C//DTD SVG 20010904//EN"
 "http://www.w3.org/TR/2001/REC-SVG-20010904/DTD/svg10.dtd">
<svg version="1.0" xmlns="http://www.w3.org/2000/svg"
 width="149.000000pt" height="93.000000pt" viewBox="0 0 149.000000 93.000000"
 preserveAspectRatio="xMidYMid meet">

<g transform="translate(0.000000,93.000000) scale(0.100000,-0.100000)"
fill="#000000" stroke="none">
<path d="M657 503 c-145 -208 -264 -379 -263 -379 0 -1 57 9 125 22 67 13 169
30 225 37 l101 13 7 84 c7 89 -5 242 -23 298 -15 45 -4 52 19 13 l19 -32 11
99 c7 54 20 127 31 160 10 34 17 62 16 62 -2 0 -122 -170 -268 -377z"/>
<path d="M765 163 c-117 -18 -428 -73 -433 -77 -12 -12 5 -13 53 -5 28 5 156
12 286 16 239 6 357 -3 442 -32 37 -13 38 -12 35 8 -4 32 -63 48 -201 54 -109
6 -118 8 -114 25 5 19 -2 20 -68 11z"/>
</g>
</svg>
